<svg xmlns="http://www.w3.org/2000/svg" xmlns:v="https://svgstorm.com"
viewBox = "0 0 1000 1000"
width="1000"
height="1000">
<g fill="#000000" fill-opacity="0.00" stroke="None">
<path d="
M 0.00 1000.00 
L 1000.00 1000.00
L 1000.00 0.00
L 0.00 0.00
L 0.00 1000.00
M 840.00 535.00 
C 844.42 522.27 865.79 504.78 854.25 489.75 C 842.70 474.73 819.13 477.52 802.00 479.00 C 784.87 480.48 765.06 485.48 749.00 492.00
C 758.39 481.40 772.78 476.34 785.68 469.68 C 798.57 463.02 813.26 457.02 827.22 452.22 C 841.19 447.43 859.56 441.76 874.00 440.00 C 888.44 438.24 913.12 432.62 923.25 445.75 C 933.37 458.88 915.77 473.53 907.25 483.25 C 898.73 492.96 885.90 502.30 875.30 510.30 C 864.71 518.31 851.54 528.34 840.00 535.00
M 206.00 519.00 
C 223.38 500.92 243.57 484.72 271.00 491.00
C 271.00 514.33 271.00 537.67 271.00 561.00
C 259.00 561.00 247.00 561.00 235.00 561.00
C 230.96 560.76 233.57 550.12 233.00 546.00 C 232.43 541.88 233.43 532.59 233.00 528.00
C 229.89 529.73 228.08 533.33 225.00 535.00
C 215.80 542.87 210.47 547.67 201.25 556.25 C 192.02 564.82 172.54 559.69 160.00 561.00
C 160.00 549.67 160.00 538.33 160.00 527.00
C 148.18 537.75 139.65 542.06 127.75 553.75 C 115.85 565.44 91.51 559.96 75.00 561.00
C 88.44 547.73 104.61 536.01 120.25 524.25 C 135.88 512.48 150.97 496.39 170.00 491.00
C 179.55 489.93 189.42 491.80 199.00 491.00
C 199.00 502.00 199.00 513.00 199.00 524.00
C 201.36 522.26 203.51 520.45 206.00 519.00
M 417.00 491.00 
C 417.00 508.00 417.00 525.00 417.00 542.00
C 426.33 542.00 435.67 542.00 445.00 542.00
C 445.00 548.33 445.00 554.67 445.00 561.00
C 423.00 561.00 401.00 561.00 379.00 561.00
C 379.00 537.67 379.00 514.33 379.00 491.00
C 391.67 491.00 404.33 491.00 417.00 491.00
M 372.00 503.00 
C 374.38 507.82 370.21 515.88 372.00 521.00
C 356.69 519.36 343.52 523.19 328.00 521.00 C 312.48 518.81 311.38 543.10 327.00 542.00 C 342.62 540.90 356.53 542.82 372.00 542.00
C 372.00 548.33 372.00 554.67 372.00 561.00
C 354.60 561.46 331.87 560.39 315.00 561.00 C 298.13 561.61 281.14 558.99 278.00 541.00
C 276.78 535.01 276.84 528.59 278.00 523.00
C 281.14 507.86 292.23 504.42 306.00 502.00
C 312.42 500.87 321.37 500.46 328.00 501.00 C 334.63 501.54 345.11 499.89 351.00 501.00 C 356.89 502.11 369.36 497.66 372.00 503.00
M 514.00 525.00 
C 510.31 515.69 496.47 521.12 487.00 520.00 C 477.53 518.88 464.77 520.84 455.00 520.00
C 455.00 513.67 455.00 507.33 455.00 501.00
C 474.41 499.65 495.79 502.81 515.00 501.00 C 534.21 499.19 550.31 505.63 552.00 525.00 C 553.69 544.38 549.19 560.90 528.99 561.99 C 508.79 563.08 486.83 560.70 468.00 562.00 C 449.17 563.30 441.30 537.26 456.25 528.25 C 471.19 519.24 497.01 528.28 514.00 525.00
M 665.00 543.00 
C 669.34 543.59 674.71 542.63 679.00 543.00 C 683.29 543.37 689.01 542.61 693.00 543.00 C 696.99 543.39 703.77 542.34 707.00 543.00 C 710.23 543.66 719.18 541.16 720.00 544.00
C 722.22 549.01 718.33 556.74 720.00 562.00
C 695.16 561.33 669.01 563.33 645.00 561.00
C 625.92 557.90 619.94 546.08 621.00 527.00 C 622.06 507.92 635.22 501.06 653.00 501.00 C 670.78 500.94 692.44 501.37 709.22 502.78 C 726.00 504.19 731.99 528.91 715.77 535.77 C 699.55 542.63 676.49 535.20 659.00 538.00
C 659.10 541.12 661.54 543.99 665.00 543.00
M 797.00 502.00 
C 811.24 503.72 824.05 505.05 828.00 521.00
C 829.20 525.86 829.78 534.59 829.00 540.00 C 828.22 545.41 830.87 556.27 828.67 560.67 C 826.47 565.07 813.59 561.24 810.00 562.00 C 806.41 562.76 791.18 563.13 791.00 560.00
C 790.23 551.41 791.88 542.58 791.00 534.00
C 788.53 522.87 779.04 520.46 768.00 522.00
C 768.00 534.67 768.00 547.33 768.00 560.00
C 767.17 563.90 752.29 562.00 749.00 562.00 C 745.71 562.00 730.84 563.92 730.00 560.00
C 729.23 551.48 729.13 537.09 730.00 529.00 C 730.87 520.91 725.26 503.21 734.03 501.03 C 742.79 498.84 756.48 501.95 766.00 501.00 C 775.52 500.05 788.13 500.93 797.00 502.00
M 618.00 521.00 
C 610.72 521.65 603.29 520.51 596.00 521.00
C 596.00 534.33 596.00 547.67 596.00 561.00
C 591.82 565.32 579.98 560.40 574.00 562.00 C 568.02 563.60 556.01 563.09 558.00 555.00 C 559.99 546.91 556.22 539.34 558.00 532.00 C 559.78 524.66 554.79 515.70 559.00 510.00
C 559.00 509.50 559.00 509.00 559.00 509.00
C 560.48 502.58 567.75 501.02 574.00 502.00 C 580.25 502.98 590.02 500.37 596.00 502.00 C 601.98 503.63 613.18 498.63 618.00 502.00
C 620.29 503.60 619.85 519.23 618.00 521.00 Z"/>
</g>
<g fill="#161616" fill-opacity="0.95" stroke="None">
<path d="
M 840.00 535.00 
C 851.54 528.34 864.71 518.31 875.30 510.30 C 885.90 502.30 898.73 492.96 907.25 483.25 C 915.77 473.53 933.37 458.88 923.25 445.75 C 913.12 432.62 888.44 438.24 874.00 440.00 C 859.56 441.76 841.19 447.43 827.22 452.22 C 813.26 457.02 798.57 463.02 785.68 469.68 C 772.78 476.34 758.39 481.40 749.00 492.00
C 765.06 485.48 784.87 480.48 802.00 479.00 C 819.13 477.52 842.70 474.73 854.25 489.75 C 865.79 504.78 844.42 522.27 840.00 535.00 Z"/>
</g>
<g fill="#151515" fill-opacity="0.97" stroke="None">
<path d="
M 225.00 535.00 
C 225.23 534.84 225.00 534.00 225.00 534.00
C 226.72 530.49 231.35 526.39 235.00 526.00
C 235.00 537.33 235.00 548.67 235.00 560.00
C 235.00 560.50 235.00 561.00 235.00 561.00
C 247.00 561.00 259.00 561.00 271.00 561.00
C 271.00 537.67 271.00 514.33 271.00 491.00
C 243.57 484.72 223.38 500.92 206.00 519.00
C 203.14 521.97 200.39 525.52 197.00 527.00
C 197.00 515.33 197.00 503.67 197.00 492.00
C 188.17 491.34 178.01 493.33 170.00 491.00
C 150.97 496.39 135.88 512.48 120.25 524.25 C 104.61 536.01 88.44 547.73 75.00 561.00
C 91.51 559.96 115.85 565.44 127.75 553.75 C 139.65 542.06 148.18 537.75 160.00 527.00
C 160.00 538.33 160.00 549.67 160.00 561.00
C 172.54 559.69 192.02 564.82 201.25 556.25 C 210.47 547.67 215.80 542.87 225.00 535.00 Z"/>
</g>
<g fill="#171717" fill-opacity="0.43" stroke="None">
<path d="
M 206.00 519.00 
C 203.51 520.45 201.36 522.26 199.00 524.00
C 199.00 513.00 199.00 502.00 199.00 491.00
C 189.42 491.80 179.55 489.93 170.00 491.00
C 178.01 493.33 188.17 491.34 197.00 492.00
C 197.00 503.67 197.00 515.33 197.00 527.00
C 200.39 525.52 203.14 521.97 206.00 519.00 Z"/>
</g>
<g fill="#151515" fill-opacity="0.95" stroke="None">
<path d="
M 417.00 491.00 
C 404.33 491.00 391.67 491.00 379.00 491.00
C 379.00 514.33 379.00 537.67 379.00 561.00
C 401.00 561.00 423.00 561.00 445.00 561.00
C 445.00 554.67 445.00 548.33 445.00 542.00
C 435.67 542.00 426.33 542.00 417.00 542.00
C 417.00 525.00 417.00 508.00 417.00 491.00 Z"/>
</g>
<g fill="#1C1C1C" fill-opacity="0.40" stroke="None">
<path d="
M 306.00 502.00 
C 327.14 502.61 350.12 503.63 372.00 503.00
C 369.36 497.66 356.89 502.11 351.00 501.00 C 345.11 499.89 334.63 501.54 328.00 501.00 C 321.37 500.46 312.42 500.87 306.00 502.00 Z"/>
</g>
<g fill="#151515" fill-opacity="0.95" stroke="None">
<path d="
M 514.00 525.00 
C 497.01 528.28 471.19 519.24 456.25 528.25 C 441.30 537.26 449.17 563.30 468.00 562.00 C 486.83 560.70 508.79 563.08 528.99 561.99 C 549.19 560.90 553.69 544.38 552.00 525.00 C 550.31 505.63 534.21 499.19 515.00 501.00 C 495.79 502.81 474.41 499.65 455.00 501.00
C 455.00 507.33 455.00 513.67 455.00 520.00
C 464.77 520.84 477.53 518.88 487.00 520.00 C 496.47 521.12 510.31 515.69 514.00 525.00
M 514.00 537.00 
C 514.29 547.91 503.84 541.70 497.00 544.00 C 490.16 546.30 480.17 538.73 490.01 537.01 C 499.85 535.29 504.62 538.28 514.00 537.00 Z"/>
</g>
<g fill="#161616" fill-opacity="0.96" stroke="None">
<path d="
M 645.00 561.00 
C 668.49 560.00 693.78 559.67 718.00 560.00
C 718.00 554.67 718.00 549.33 718.00 544.00
C 701.49 544.00 680.35 547.04 665.00 543.00
C 661.54 543.99 659.10 541.12 659.00 538.00
C 676.49 535.20 699.55 542.63 715.77 535.77 C 731.99 528.91 726.00 504.19 709.22 502.78 C 692.44 501.37 670.78 500.94 653.00 501.00 C 635.22 501.06 622.06 507.92 621.00 527.00 C 619.94 546.08 625.92 557.90 645.00 561.00
M 686.00 519.00 
C 686.25 519.26 686.00 520.00 686.00 520.00
C 692.67 523.52 682.85 527.73 678.00 526.00 C 673.15 524.27 664.22 527.30 659.00 526.00
C 658.47 523.54 659.58 520.87 662.00 520.00
C 662.17 519.93 662.00 519.00 662.00 519.00
C 664.27 516.66 683.79 516.72 686.00 519.00 Z"/>
</g>
<g fill="#191919" fill-opacity="0.40" stroke="None">
<path d="
M 730.00 560.00 
C 730.00 560.05 731.00 560.00 731.00 560.00
C 732.70 541.15 729.72 521.88 731.00 503.00
C 752.83 502.33 775.99 504.33 797.00 502.00
C 788.13 500.93 775.52 500.05 766.00 501.00 C 756.48 501.95 742.79 498.84 734.03 501.03 C 725.26 503.21 730.87 520.91 730.00 529.00 C 729.13 537.09 729.23 551.48 730.00 560.00 Z"/>
</g>
<g fill="#161616" fill-opacity="0.96" stroke="None">
<path d="
M 278.00 523.00 
C 278.03 527.99 278.03 536.08 278.00 541.00
C 281.14 558.99 298.13 561.61 315.00 561.00 C 331.87 560.39 354.60 561.46 372.00 561.00
C 372.00 554.67 372.00 548.33 372.00 542.00
C 356.53 542.82 342.62 540.90 327.00 542.00 C 311.38 543.10 312.48 518.81 328.00 521.00 C 343.52 523.19 356.69 519.36 372.00 521.00
C 370.21 515.88 374.38 507.82 372.00 503.00
C 350.12 503.63 327.14 502.61 306.00 502.00
C 292.23 504.42 281.14 507.86 278.00 523.00 Z"/>
</g>
<g fill="#151515" fill-opacity="0.99" stroke="None">
<path d="
M 559.00 509.00 
C 563.88 513.67 558.22 527.10 560.00 534.00 C 561.78 540.90 558.66 552.66 560.00 560.00
C 571.67 560.00 583.33 560.00 595.00 560.00
C 594.99 548.42 596.21 540.99 595.00 529.00 C 593.79 517.01 608.07 519.10 618.00 520.00
C 617.99 514.00 618.01 508.00 618.00 502.00
C 613.18 498.63 601.98 503.63 596.00 502.00 C 590.02 500.37 580.25 502.98 574.00 502.00 C 567.75 501.02 560.48 502.58 559.00 509.00 Z"/>
</g>
<g fill="#151515" fill-opacity="0.35" stroke="None">
<path d="
M 618.00 520.00 
C 618.00 520.50 618.00 521.00 618.00 521.00
C 619.85 519.23 620.29 503.60 618.00 502.00
C 618.01 508.00 617.99 514.00 618.00 520.00 Z"/>
</g>
<g fill="#151515" fill-opacity="0.98" stroke="None">
<path d="
M 731.00 560.00 
C 743.00 560.00 755.00 560.00 767.00 560.00
C 767.50 560.00 768.00 560.00 768.00 560.00
C 768.00 547.33 768.00 534.67 768.00 522.00
C 779.04 520.46 788.53 522.87 791.00 534.00
C 792.65 541.43 792.74 551.82 792.00 560.00
C 803.92 560.00 816.53 559.18 828.00 561.00
C 828.06 547.89 827.91 533.01 828.00 521.00
C 824.05 505.05 811.24 503.72 797.00 502.00
C 775.99 504.33 752.83 502.33 731.00 503.00
C 729.72 521.88 732.70 541.15 731.00 560.00 Z"/>
</g>
<g fill="#161616" fill-opacity="0.69" stroke="None">
<path d="
M 559.00 510.00 
C 559.00 527.00 559.00 544.00 559.00 561.00
C 571.00 561.00 583.00 561.00 595.00 561.00
C 594.75 560.75 595.00 560.00 595.00 560.00
C 583.33 560.00 571.67 560.00 560.00 560.00
C 558.66 552.66 561.78 540.90 560.00 534.00 C 558.22 527.10 563.88 513.67 559.00 509.00
C 559.00 509.00 559.00 509.50 559.00 510.00 Z"/>
</g>
<g fill="#151515" fill-opacity="0.17" stroke="None">
<path d="
M 596.00 561.00 
C 596.00 561.04 595.00 561.00 595.00 561.00
C 583.00 561.00 571.00 561.00 559.00 561.00
C 559.00 544.00 559.00 527.00 559.00 510.00
C 554.79 515.70 559.78 524.66 558.00 532.00 C 556.22 539.34 559.99 546.91 558.00 555.00 C 556.01 563.09 568.02 563.60 574.00 562.00 C 579.98 560.40 591.82 565.32 596.00 561.00 Z"/>
</g>
<g fill="#161616" fill-opacity="0.78" stroke="None">
<path d="
M 662.00 519.00 
C 669.57 518.31 678.43 518.32 686.00 519.00
C 683.79 516.72 664.27 516.66 662.00 519.00 Z"/>
</g>
<g fill="#161616" fill-opacity="0.27" stroke="None">
<path d="
M 662.00 520.00 
C 669.57 520.68 678.43 520.69 686.00 520.00
C 686.00 520.00 686.25 519.26 686.00 519.00
C 678.43 518.32 669.57 518.31 662.00 519.00
C 662.00 519.00 662.17 519.93 662.00 520.00 Z"/>
</g>
<g fill="#151515" fill-opacity="0.52" stroke="None">
<path d="
M 595.00 560.00 
C 595.00 560.00 594.75 560.75 595.00 561.00
C 595.00 561.00 596.00 561.04 596.00 561.00
C 596.00 547.67 596.00 534.33 596.00 521.00
C 603.29 520.51 610.72 521.65 618.00 521.00
C 618.00 521.00 618.00 520.50 618.00 520.00
C 608.07 519.10 593.79 517.01 595.00 529.00 C 596.21 540.99 594.99 548.42 595.00 560.00 Z"/>
</g>
<g fill="#000000" fill-opacity="0.00" stroke="None">
<path d="
M 686.00 520.00 
C 678.43 520.69 669.57 520.68 662.00 520.00
C 659.58 520.87 658.47 523.54 659.00 526.00
C 664.22 527.30 673.15 524.27 678.00 526.00 C 682.85 527.73 692.67 523.52 686.00 520.00 Z"/>
</g>
<g fill="#161616" fill-opacity="0.28" stroke="None">
<path d="
M 792.00 560.00 
C 791.50 560.00 791.00 560.00 791.00 560.00
C 791.18 563.13 806.41 562.76 810.00 562.00 C 813.59 561.24 826.47 565.07 828.67 560.67 C 830.87 556.27 828.22 545.41 829.00 540.00 C 829.78 534.59 829.20 525.86 828.00 521.00
C 827.91 533.01 828.06 547.89 828.00 561.00
C 816.53 559.18 803.92 560.00 792.00 560.00 Z"/>
</g>
<g fill="#161616" fill-opacity="0.56" stroke="None">
<path d="
M 278.00 541.00 
C 278.03 536.08 278.03 527.99 278.00 523.00
C 276.84 528.59 276.78 535.01 278.00 541.00 Z"/>
</g>
<g fill="#161616" fill-opacity="0.72" stroke="None">
<path d="
M 225.00 534.00 
C 228.11 531.83 230.36 527.89 234.00 527.00
C 234.67 537.83 232.67 549.99 235.00 560.00
C 235.00 548.67 235.00 537.33 235.00 526.00
C 231.35 526.39 226.72 530.49 225.00 534.00 Z"/>
</g>
<g fill="#191919" fill-opacity="0.17" stroke="None">
<path d="
M 225.00 534.00 
C 225.00 534.00 225.23 534.84 225.00 535.00
C 228.08 533.33 229.89 529.73 233.00 528.00
C 233.43 532.59 232.43 541.88 233.00 546.00 C 233.57 550.12 230.96 560.76 235.00 561.00
C 235.00 561.00 235.00 560.50 235.00 560.00
C 232.67 549.99 234.67 537.83 234.00 527.00
C 230.36 527.89 228.11 531.83 225.00 534.00 Z"/>
</g>
<g fill="#161616" fill-opacity="0.50" stroke="None">
<path d="
M 791.00 560.00 
C 791.00 560.00 791.50 560.00 792.00 560.00
C 792.74 551.82 792.65 541.43 791.00 534.00
C 791.88 542.58 790.23 551.41 791.00 560.00 Z"/>
</g>
<g fill="#000000" fill-opacity="0.01" stroke="None">
<path d="
M 514.00 537.00 
C 504.62 538.28 499.85 535.29 490.01 537.01 C 480.17 538.73 490.16 546.30 497.00 544.00 C 503.84 541.70 514.29 547.91 514.00 537.00 Z"/>
</g>
<g fill="#181818" fill-opacity="0.28" stroke="None">
<path d="
M 718.00 544.00 
C 718.50 544.00 719.92 543.81 720.00 544.00
C 719.18 541.16 710.23 543.66 707.00 543.00 C 703.77 542.34 696.99 543.39 693.00 543.00 C 689.01 542.61 683.29 543.37 679.00 543.00 C 674.71 542.63 669.34 543.59 665.00 543.00
C 680.35 547.04 701.49 544.00 718.00 544.00 Z"/>
</g>
<g fill="#141414" fill-opacity="0.65" stroke="None">
<path d="
M 645.00 561.00 
C 669.01 563.33 695.16 561.33 720.00 562.00
C 718.33 556.74 722.22 549.01 720.00 544.00
C 719.92 543.81 718.50 544.00 718.00 544.00
C 718.00 549.33 718.00 554.67 718.00 560.00
C 693.78 559.67 668.49 560.00 645.00 561.00 Z"/>
</g>
<g fill="#171717" fill-opacity="0.14" stroke="None">
<path d="
M 768.00 560.00 
C 768.00 560.00 767.50 560.00 767.00 560.00
C 763.37 562.69 753.76 560.99 749.00 561.00 C 744.24 561.01 734.59 562.66 731.00 560.00
C 731.00 560.00 730.00 560.05 730.00 560.00
C 730.84 563.92 745.71 562.00 749.00 562.00 C 752.29 562.00 767.17 563.90 768.00 560.00 Z"/>
</g>
<g fill="#161616" fill-opacity="0.65" stroke="None">
<path d="
M 767.00 560.00 
C 755.00 560.00 743.00 560.00 731.00 560.00
C 734.59 562.66 744.24 561.01 749.00 561.00 C 753.76 560.99 763.37 562.69 767.00 560.00 Z"/>
</g>
</svg>